<svg width="699" height="281" viewBox="0 0 699 281" fill="none" xmlns="http://www.w3.org/2000/svg">
<rect width="699" height="281" fill="#363636"/>
<rect x="-613" y="-202" width="1920" height="1080" fill="white"/>
<g clip-path="url(#clip0)">
<path d="M852.851 345.78C853.84 348.194 855.093 350.491 856.588 352.628C851.041 410.618 875.47 472.761 925.896 507.939L795.508 718.438C757.491 691.626 738.193 652.155 730.841 604.671C727.472 604.987 724.794 605.504 722.308 606.004C718.808 606.726 715.599 608.465 713.083 611.004C710.567 613.542 708.857 616.767 708.166 620.273C707.182 625.082 704.937 629.542 701.66 633.197C698.384 636.852 694.194 639.569 689.522 641.07C684.849 642.572 679.86 642.803 675.068 641.741C670.277 640.679 665.853 638.361 662.253 635.026C658.652 631.69 656.003 627.457 654.578 622.76C653.153 618.063 653.003 613.072 654.143 608.298C655.284 603.524 657.673 599.139 661.067 595.593C664.461 592.048 668.737 589.468 673.456 588.12C674.875 587.715 676.325 587.431 677.791 587.269C678.68 587.102 679.586 587.039 680.49 587.083C692.171 576.275 708.008 569.811 728.576 567.636C729.491 531.234 738.406 495.479 754.687 462.907C752.649 461.671 750.545 460.549 748.383 459.546C745.423 458.22 742.156 457.734 738.939 458.139C735.722 458.545 732.678 459.827 730.14 461.846C726.134 464.933 721.361 466.865 716.336 467.433C711.311 468.001 706.227 467.183 701.634 465.068C697.04 462.952 693.114 459.62 690.279 455.433C687.444 451.246 685.809 446.362 685.551 441.312C685.293 436.262 686.422 431.237 688.816 426.783C691.209 422.329 694.776 418.614 699.13 416.042C703.484 413.47 708.459 412.138 713.515 412.191C718.572 412.244 723.517 413.68 727.816 416.343C728.759 416.95 729.669 417.605 730.545 418.305C735.633 417.953 740.744 418.425 745.681 419.703C755.335 422.182 764.583 426.032 773.143 431.137C787.516 409.798 805.029 390.752 825.09 374.643C821.661 368.355 818.844 361.752 816.677 354.925C814.665 348.112 813.977 340.976 814.648 333.903C814.923 330.289 814.16 326.671 812.45 323.475C811.161 320.969 810.223 318.298 809.66 315.536C808.693 310.593 809.093 305.479 810.819 300.746C812.544 296.013 815.529 291.841 819.451 288.679C823.373 285.518 828.083 283.487 833.075 282.806C838.066 282.125 843.149 282.82 847.774 284.815C852.4 286.81 856.393 290.03 859.323 294.127C862.254 298.225 864.01 303.045 864.402 308.067C864.795 313.089 863.809 318.123 861.551 322.626C859.293 327.129 855.848 330.931 851.589 333.62C851.082 337.717 851.513 341.875 852.851 345.78Z" fill="#FF6348"/>
</g>
<g filter="url(#filter0_b)">
<rect x="-613" y="-202" width="1920" height="1080" fill="white" fill-opacity="0.17"/>
</g>
<path d="M652.094 180.232C654.168 180.981 656.39 181.241 658.583 180.992C660.777 180.743 662.882 179.992 664.733 178.797C666.584 177.603 668.13 175.998 669.25 174.109C670.369 172.22 671.032 170.098 671.185 167.911C671.338 165.725 670.977 163.533 670.131 161.508C669.285 159.484 667.977 157.682 666.31 156.245C664.643 154.808 662.663 153.774 660.525 153.227C658.388 152.679 656.151 152.632 653.992 153.089L654.349 160.374L650.877 154.131C647.47 155.72 644.838 158.587 643.56 162.102C643.106 163.334 642.83 164.623 642.74 165.931C642.521 169 643.315 172.057 645.003 174.638C646.691 177.218 649.18 179.182 652.094 180.232V180.232Z" fill="#57B894"/>
<path d="M669.27 264.721C668.045 258.525 673.354 253.033 678.599 249.463C683.844 245.893 689.973 242.386 691.762 236.327C694.334 227.62 686.673 219.646 680.71 212.77C676.287 207.667 672.488 202.061 669.393 196.071C668.152 193.668 667.012 191.157 666.686 188.477C666.216 184.618 667.465 180.777 668.723 177.096C672.914 164.832 677.396 152.671 682.167 140.613" stroke="#3F3D56" stroke-width="0.680023" stroke-miterlimit="10"/>
<path d="M652.681 178.357C654.756 179.106 656.977 179.366 659.171 179.117C661.364 178.868 663.469 178.117 665.32 176.922C667.171 175.727 668.718 174.122 669.837 172.233C670.957 170.344 671.619 168.223 671.772 166.036C671.925 163.849 671.564 161.657 670.718 159.633C669.873 157.608 668.565 155.806 666.898 154.369C665.231 152.932 663.25 151.899 661.113 151.351C658.975 150.804 656.738 150.757 654.579 151.214L654.936 158.498L651.465 152.255C648.058 153.845 645.426 156.712 644.147 160.227C643.693 161.458 643.417 162.747 643.327 164.055C643.108 167.125 643.903 170.181 645.59 172.762C647.278 175.343 649.768 177.307 652.681 178.357V178.357Z" stroke="#3F3D56" stroke-width="0.680023" stroke-miterlimit="10"/>
<path d="M667.528 138.097C668.342 135.867 669.709 133.875 671.502 132.307C673.295 130.739 675.456 129.643 677.788 129.122L678.962 136.048L681.138 128.774C684.159 128.819 687.088 129.816 689.501 131.62C691.915 133.425 693.688 135.945 694.566 138.816C695.443 141.687 695.379 144.76 694.382 147.592C693.385 150.424 691.508 152.868 689.021 154.572C686.534 156.276 683.565 157.151 680.545 157.07C677.524 156.99 674.608 155.959 672.216 154.125C669.824 152.292 668.081 149.752 667.238 146.871C666.396 143.99 666.497 140.917 667.528 138.097H667.528Z" fill="#57B894"/>
<path d="M668.31 135.596C669.124 133.366 670.491 131.375 672.284 129.806C674.077 128.238 676.239 127.143 678.57 126.622L679.744 133.547L681.92 126.274C684.941 126.318 687.87 127.315 690.284 129.12C692.697 130.925 694.471 133.444 695.348 136.315C696.225 139.186 696.161 142.259 695.164 145.091C694.167 147.923 692.29 150.368 689.803 152.071C687.316 153.775 684.348 154.65 681.327 154.57C678.306 154.489 675.39 153.458 672.998 151.625C670.606 149.791 668.863 147.251 668.021 144.37C667.178 141.489 667.279 138.417 668.31 135.596H668.31Z" stroke="#3F3D56" stroke-width="0.680023" stroke-miterlimit="10"/>
<path d="M678.208 212.911C681.498 214.096 685.113 214.037 688.362 212.746C691.612 211.455 694.27 209.022 695.829 205.911C697.388 202.799 697.74 199.227 696.816 195.875C695.893 192.523 693.76 189.625 690.823 187.734L689.151 193.324L687.965 186.317C687.954 186.311 687.942 186.307 687.929 186.303C686.169 185.668 684.3 185.384 682.43 185.466C680.559 185.548 678.723 185.995 677.026 186.782C675.33 187.57 673.806 188.681 672.542 190.053C671.278 191.424 670.299 193.03 669.661 194.778C669.022 196.526 668.737 198.381 668.82 200.239C668.904 202.096 669.356 203.918 670.15 205.602C670.944 207.286 672.064 208.798 673.446 210.052C674.829 211.306 676.447 212.278 678.207 212.911H678.208Z" fill="#57B894"/>
<path d="M678.886 210.378C682.177 211.563 685.791 211.504 689.041 210.213C692.291 208.922 694.949 206.489 696.508 203.378C698.067 200.266 698.418 196.694 697.495 193.342C696.572 189.99 694.439 187.092 691.502 185.201L689.83 190.791L688.644 183.784C688.632 183.778 688.62 183.774 688.608 183.77C686.848 183.135 684.979 182.851 683.108 182.933C681.238 183.015 679.402 183.462 677.705 184.25C676.008 185.037 674.485 186.148 673.221 187.52C671.957 188.892 670.978 190.497 670.339 192.245C669.701 193.993 669.415 195.848 669.499 197.706C669.583 199.563 670.035 201.386 670.829 203.069C671.622 204.753 672.742 206.266 674.125 207.519C675.508 208.773 677.125 209.745 678.886 210.378H678.886Z" stroke="#3F3D56" stroke-width="0.680023" stroke-miterlimit="10"/>
<path d="M663.367 236.414C663.933 239.61 665.589 242.516 668.056 244.644C670.524 246.772 673.653 247.994 676.92 248.103C680.187 248.212 683.392 247.203 685.999 245.244C688.605 243.286 690.453 240.497 691.234 237.346C692.016 234.194 691.682 230.872 690.288 227.937C688.895 225.001 686.528 222.63 683.583 221.222C680.638 219.813 677.295 219.453 674.115 220.201C670.934 220.949 668.11 222.761 666.114 225.331L672.465 234.822L663.787 229.785C663.115 231.929 662.971 234.203 663.367 236.414V236.414Z" fill="#57B894"/>
<path d="M663.955 234.539C664.521 237.735 666.176 240.641 668.644 242.769C671.111 244.897 674.241 246.118 677.508 246.228C680.774 246.337 683.98 245.328 686.586 243.369C689.192 241.41 691.041 238.622 691.822 235.47C692.603 232.319 692.269 228.997 690.876 226.061C689.483 223.126 687.115 220.755 684.17 219.346C681.226 217.938 677.883 217.578 674.702 218.326C671.522 219.074 668.697 220.885 666.702 223.456L673.053 232.947L664.375 227.909C663.702 230.054 663.558 232.327 663.955 234.539V234.539Z" stroke="#3F3D56" stroke-width="0.680023" stroke-miterlimit="10"/>
<path d="M633.22 189.73H608.881V118.573C608.881 114.793 607.369 111.169 604.677 108.496C601.985 105.824 598.335 104.322 594.528 104.322H588.825C586.94 104.322 585.074 104.691 583.332 105.407C581.591 106.123 580.008 107.173 578.676 108.496C577.343 109.819 576.286 111.39 575.564 113.119C574.843 114.848 574.472 116.701 574.472 118.573V189.73H505.821C504.409 189.73 503.02 189.368 501.791 188.678C500.561 187.988 499.532 186.995 498.803 185.794C498.074 184.593 497.67 183.225 497.63 181.824C497.591 180.422 497.916 179.034 498.576 177.794L571.235 41.2589C572.141 39.5567 572.69 37.6899 572.849 35.7711C573.008 33.8524 572.774 31.9215 572.161 30.0951C571.548 28.2686 570.568 26.5845 569.281 25.1444C567.994 23.7042 566.427 22.5379 564.673 21.7158L560.384 19.7048C557.053 18.1434 553.246 17.9128 549.749 19.0609C546.252 20.2089 543.333 22.6477 541.597 25.8727L452.98 190.461C451.471 193.263 450.681 196.392 450.681 199.57V199.57C450.681 204.695 452.732 209.61 456.382 213.234C460.032 216.858 464.982 218.894 470.144 218.894H574.472V263.889C574.472 268.419 576.284 272.764 579.511 275.967C582.737 279.171 587.113 280.97 591.676 280.97V280.97C596.239 280.97 600.615 279.171 603.842 275.967C607.068 272.764 608.881 268.419 608.881 263.889V218.894H633.22C637.115 218.894 640.851 217.357 643.605 214.623C646.359 211.888 647.907 208.179 647.907 204.312V204.312C647.907 200.445 646.359 196.736 643.605 194.001C640.851 191.266 637.115 189.73 633.22 189.73Z" fill="#FF6348"/>
<path d="M645.808 181.398H621.47V110.241C621.47 106.461 619.957 102.836 617.266 100.164C614.574 97.4915 610.923 95.99 607.116 95.99H601.413C599.528 95.99 597.662 96.3587 595.921 97.0748C594.179 97.791 592.597 98.8407 591.264 100.164C589.931 101.487 588.874 103.058 588.153 104.787C587.431 106.516 587.06 108.369 587.06 110.241V181.398H518.409C516.997 181.398 515.609 181.035 514.379 180.346C513.15 179.656 512.12 178.663 511.391 177.462C510.662 176.261 510.258 174.893 510.219 173.491C510.179 172.09 510.505 170.702 511.165 169.462L583.823 32.9267C584.729 31.2244 585.278 29.3576 585.438 27.4388C585.597 25.5201 585.363 23.5892 584.749 21.7628C584.136 19.9364 583.156 18.2522 581.869 16.8121C580.583 15.3719 579.015 14.2056 577.262 13.3835L572.972 11.3726C569.642 9.81109 565.834 9.58052 562.337 10.7286C558.84 11.8766 555.922 14.3154 554.185 17.5404L465.568 182.128C464.059 184.931 463.27 188.06 463.27 191.238C463.27 196.363 465.32 201.278 468.97 204.902C472.62 208.525 477.571 210.561 482.732 210.561H587.06V255.557C587.06 260.087 588.873 264.432 592.099 267.635C595.326 270.839 599.702 272.638 604.265 272.638V272.638C608.828 272.638 613.204 270.839 616.43 267.635C619.657 264.432 621.47 260.087 621.47 255.557V210.561H645.808C647.737 210.561 649.647 210.184 651.428 209.451C653.21 208.719 654.829 207.645 656.193 206.29C657.557 204.936 658.639 203.329 659.377 201.56C660.115 199.791 660.495 197.894 660.495 195.98V195.98C660.495 192.112 658.948 188.403 656.193 185.669C653.439 182.934 649.703 181.398 645.808 181.398V181.398Z" stroke="#3F3D56" stroke-width="0.680023" stroke-miterlimit="10"/>
<path d="M318.918 8.49902C260.052 8.49902 217.788 45.9951 217.788 133.486C217.788 232.642 260.052 258.889 318.918 258.889C377.784 258.889 422.566 230.142 422.566 133.486C422.566 30.1634 377.784 8.49902 318.918 8.49902ZM319.305 225.976C278.533 225.976 257.233 202.228 257.233 133.55C257.233 72.9518 279.405 40.9956 320.177 40.9956C360.949 40.9956 383.121 61.9864 383.121 133.55C383.121 200.496 360.077 225.976 319.305 225.976Z" fill="#2F2E41"/>
<path d="M332.346 1C273.48 1 231.215 38.4961 231.215 125.987C231.215 225.143 273.48 251.39 332.346 251.39C391.212 251.39 435.994 222.643 435.994 125.987C435.994 22.6644 391.212 1 332.346 1ZM332.733 218.477C291.961 218.477 270.66 194.729 270.66 126.051C270.66 65.4528 292.833 33.4966 333.605 33.4966C374.377 33.4966 396.549 54.4874 396.549 126.051C396.549 192.997 373.505 218.477 332.733 218.477V218.477Z" stroke="#363636" stroke-width="0.680023" stroke-miterlimit="10"/>
<path d="M357.148 20.1814C356.616 22.353 354.321 24.0922 351.779 25.3073C346.435 27.8621 339.844 28.6244 333.45 28.8803C331.819 28.9787 330.183 28.9487 328.557 28.7905C325.406 28.4879 322.449 27.1387 320.166 24.961C320.003 24.8556 319.87 24.7108 319.778 24.5403C319.687 24.3698 319.641 24.179 319.644 23.9859C319.647 23.7928 319.699 23.6035 319.796 23.4359C319.892 23.2682 320.03 23.1276 320.196 23.0271C323.6 19.315 329.28 17.0388 335.002 15.3999C339.34 14.1572 346.907 10.9384 351.639 11.3728C356.222 11.7936 357.82 17.4394 357.148 20.1814Z" fill="#3F3D56"/>
<path opacity="0.1" d="M357.148 20.1814C356.616 22.353 354.321 24.0922 351.779 25.3073C346.435 27.8621 339.844 28.6244 333.45 28.8803C331.819 28.9787 330.183 28.9487 328.557 28.7905C325.406 28.4879 322.449 27.1387 320.166 24.961C320.003 24.8556 319.87 24.7108 319.778 24.5403C319.687 24.3698 319.641 24.179 319.644 23.9859C319.647 23.7928 319.699 23.6035 319.796 23.4359C319.892 23.2682 320.03 23.1276 320.196 23.0271C323.6 19.315 329.28 17.0388 335.002 15.3999C339.34 14.1572 346.907 10.9384 351.639 11.3728C356.222 11.7936 357.82 17.4394 357.148 20.1814Z" fill="black"/>
<path d="M291.877 126.895C298.307 126.895 303.521 120.197 303.521 111.935C303.521 103.672 298.307 96.9741 291.877 96.9741C285.446 96.9741 280.233 103.672 280.233 111.935C280.233 120.197 285.446 126.895 291.877 126.895Z" fill="#2F2E41"/>
<path d="M355.233 127.235C361.663 127.235 366.876 120.537 366.876 112.274C366.876 104.012 361.663 97.314 355.233 97.314C348.802 97.314 343.589 104.012 343.589 112.274C343.589 120.537 348.802 127.235 355.233 127.235Z" fill="#2F2E41"/>
<path d="M346.329 156.476C346.329 163.236 336.822 168.717 325.096 168.717C313.37 168.717 303.863 163.236 303.863 156.476C303.863 150.621 310.993 145.725 320.521 144.528C322.038 144.33 323.566 144.232 325.096 144.236C327.66 144.228 330.216 144.501 332.719 145.052C340.678 146.813 346.329 151.267 346.329 156.476Z" fill="#2F2E41"/>
<path d="M294.616 123.495C301.047 123.495 306.26 116.797 306.26 108.535C306.26 100.272 301.047 93.5742 294.616 93.5742C288.186 93.5742 282.973 100.272 282.973 108.535C282.973 116.797 288.186 123.495 294.616 123.495Z" stroke="#3F3D56" stroke-width="0.680023" stroke-miterlimit="10"/>
<path d="M357.973 123.835C364.404 123.835 369.617 117.137 369.617 108.875C369.617 100.612 364.404 93.9141 357.973 93.9141C351.542 93.9141 346.329 100.612 346.329 108.875C346.329 117.137 351.542 123.835 357.973 123.835Z" stroke="#3F3D56" stroke-width="0.680023" stroke-miterlimit="10"/>
<path d="M327.836 165.317C339.562 165.317 349.069 159.836 349.069 153.076C349.069 146.316 339.562 140.836 327.836 140.836C316.109 140.836 306.603 146.316 306.603 153.076C306.603 159.836 316.109 165.317 327.836 165.317Z" stroke="#3F3D56" stroke-width="0.680023" stroke-miterlimit="10"/>
<path d="M332.973 146.072C332.979 146.927 332.655 147.752 332.069 148.378C331.792 148.679 331.456 148.918 331.081 149.083C330.706 149.248 330.301 149.334 329.891 149.336H323.042C322.198 149.307 321.4 148.947 320.822 148.335C320.244 147.724 319.934 146.91 319.959 146.072C319.956 145.409 320.151 144.76 320.521 144.208C322.037 143.996 323.566 143.892 325.096 143.896C327.663 143.887 330.222 144.179 332.72 144.766C332.889 145.181 332.975 145.624 332.973 146.072V146.072Z" fill="white"/>
<path d="M294.617 107.854C296.508 107.854 298.042 106.332 298.042 104.454C298.042 102.576 296.508 101.054 294.617 101.054C292.726 101.054 291.192 102.576 291.192 104.454C291.192 106.332 292.726 107.854 294.617 107.854Z" fill="white"/>
<path d="M358.315 107.854C360.207 107.854 361.74 106.332 361.74 104.454C361.74 102.576 360.207 101.054 358.315 101.054C356.424 101.054 354.891 102.576 354.891 104.454C354.891 106.332 356.424 107.854 358.315 107.854Z" fill="white"/>
<path opacity="0.3" d="M361.74 139.816C363.631 139.816 365.164 138.293 365.164 136.415C365.164 134.538 363.631 133.015 361.74 133.015C359.848 133.015 358.315 134.538 358.315 136.415C358.315 138.293 359.848 139.816 361.74 139.816Z" fill="#FF6348"/>
<path opacity="0.3" d="M278.179 139.816C280.07 139.816 281.603 138.293 281.603 136.415C281.603 134.538 280.07 133.015 278.179 133.015C276.287 133.015 274.754 134.538 274.754 136.415C274.754 138.293 276.287 139.816 278.179 139.816Z" fill="#FF6348"/>
<path d="M385.754 196.348C387.117 196.84 388.577 197.011 390.018 196.847C391.459 196.684 392.842 196.19 394.058 195.405C395.275 194.62 396.29 193.566 397.026 192.325C397.762 191.083 398.197 189.69 398.297 188.253C398.398 186.816 398.161 185.376 397.605 184.046C397.049 182.716 396.19 181.532 395.095 180.588C393.999 179.643 392.698 178.965 391.294 178.605C389.889 178.245 388.42 178.214 387.001 178.514L387.236 183.3L384.955 179.199C382.716 180.243 380.987 182.127 380.147 184.436C379.849 185.245 379.667 186.092 379.608 186.952C379.464 188.968 379.986 190.977 381.095 192.672C382.204 194.368 383.84 195.658 385.754 196.348V196.348Z" fill="#57B894"/>
<path d="M397.04 251.859C396.235 247.788 399.724 244.18 403.17 241.834C406.616 239.489 410.642 237.184 411.818 233.204C413.508 227.483 408.474 222.244 404.557 217.726C401.65 214.373 399.154 210.69 397.121 206.754C396.237 205.208 395.635 203.519 395.342 201.765C395.034 199.23 395.854 196.706 396.681 194.288C399.435 186.23 402.379 178.24 405.514 170.317" stroke="#3F3D56" stroke-width="0.680023" stroke-miterlimit="10"/>
<path d="M386.14 195.116C387.503 195.608 388.963 195.779 390.404 195.615C391.845 195.452 393.228 194.958 394.445 194.173C395.661 193.388 396.677 192.334 397.412 191.093C398.148 189.852 398.583 188.458 398.684 187.021C398.784 185.584 398.547 184.144 397.991 182.814C397.435 181.484 396.576 180.3 395.481 179.356C394.386 178.412 393.085 177.733 391.68 177.373C390.276 177.013 388.806 176.982 387.387 177.282L387.622 182.069L385.341 177.967C383.103 179.011 381.373 180.895 380.533 183.204C380.235 184.013 380.054 184.86 379.995 185.72C379.851 187.736 380.373 189.745 381.482 191.44C382.591 193.136 384.226 194.426 386.14 195.116V195.116Z" stroke="#3F3D56" stroke-width="0.680023" stroke-miterlimit="10"/>
<path d="M395.895 168.664C396.43 167.199 397.327 165.89 398.506 164.86C399.684 163.83 401.104 163.11 402.636 162.768L403.407 167.318L404.837 162.539C406.822 162.568 408.746 163.223 410.332 164.409C411.918 165.595 413.083 167.25 413.659 169.136C414.235 171.023 414.193 173.042 413.538 174.903C412.883 176.763 411.65 178.369 410.016 179.489C408.382 180.608 406.432 181.183 404.447 181.13C402.463 181.077 400.546 180.4 398.975 179.195C397.403 177.991 396.258 176.321 395.705 174.429C395.151 172.536 395.217 170.517 395.895 168.664V168.664Z" fill="#57B894"/>
<path d="M396.409 167.022C396.944 165.556 397.842 164.248 399.02 163.217C400.198 162.187 401.618 161.467 403.15 161.125L403.921 165.675L405.351 160.896C407.336 160.926 409.26 161.581 410.846 162.766C412.432 163.952 413.597 165.608 414.173 167.494C414.75 169.38 414.707 171.399 414.052 173.26C413.398 175.121 412.164 176.727 410.53 177.846C408.896 178.965 406.946 179.54 404.961 179.487C402.977 179.435 401.06 178.757 399.489 177.553C397.918 176.348 396.772 174.679 396.219 172.786C395.665 170.893 395.732 168.875 396.409 167.022V167.022Z" stroke="#3F3D56" stroke-width="0.680023" stroke-miterlimit="10"/>
<path d="M402.912 217.819C405.074 218.597 407.449 218.559 409.584 217.711C411.719 216.862 413.465 215.264 414.49 213.22C415.514 211.175 415.745 208.828 415.138 206.626C414.532 204.423 413.13 202.52 411.201 201.277L410.102 204.949L409.323 200.346C409.315 200.342 409.307 200.339 409.299 200.337C408.143 199.919 406.915 199.732 405.686 199.786C404.456 199.84 403.25 200.134 402.135 200.651C401.02 201.168 400.019 201.898 399.188 202.8C398.358 203.701 397.714 204.756 397.295 205.904C396.875 207.053 396.688 208.272 396.743 209.493C396.798 210.713 397.095 211.911 397.617 213.017C398.138 214.124 398.874 215.117 399.783 215.941C400.692 216.765 401.755 217.403 402.912 217.819V217.819Z" fill="#57B894"/>
<path d="M403.358 216.154C405.52 216.933 407.894 216.895 410.03 216.046C412.165 215.198 413.911 213.6 414.935 211.556C415.96 209.511 416.191 207.164 415.584 204.962C414.978 202.759 413.576 200.856 411.646 199.613L410.548 203.285L409.769 198.682C409.761 198.678 409.753 198.675 409.745 198.673C408.589 198.256 407.361 198.07 406.133 198.125C404.904 198.179 403.698 198.474 402.584 198.991C400.334 200.035 398.594 201.925 397.747 204.243C396.9 206.561 397.016 209.118 398.068 211.352C399.12 213.586 401.023 215.314 403.358 216.154V216.154Z" stroke="#3F3D56" stroke-width="0.680023" stroke-miterlimit="10"/>
<path d="M393.161 233.261C393.533 235.361 394.621 237.27 396.242 238.668C397.863 240.066 399.92 240.869 402.066 240.94C404.212 241.012 406.318 240.349 408.031 239.062C409.743 237.775 410.957 235.943 411.471 233.873C411.984 231.802 411.764 229.62 410.849 227.691C409.934 225.762 408.378 224.204 406.444 223.279C404.509 222.354 402.312 222.117 400.223 222.609C398.133 223.1 396.277 224.29 394.966 225.979L399.139 232.215L393.437 228.905C392.995 230.314 392.901 231.808 393.161 233.261V233.261Z" fill="#57B894"/>
<path d="M393.548 232.028C393.919 234.128 395.007 236.037 396.628 237.436C398.25 238.834 400.306 239.636 402.452 239.708C404.599 239.78 406.704 239.117 408.417 237.83C410.129 236.543 411.344 234.711 411.857 232.64C412.37 230.57 412.151 228.387 411.235 226.458C410.32 224.53 408.765 222.972 406.83 222.047C404.895 221.121 402.699 220.885 400.609 221.376C398.519 221.868 396.663 223.058 395.352 224.747L399.525 230.982L393.824 227.673C393.382 229.082 393.287 230.575 393.548 232.028V232.028Z" stroke="#3F3D56" stroke-width="0.680023" stroke-miterlimit="10"/>
<path d="M182.539 189.73H158.2V118.573C158.2 114.793 156.688 111.169 153.996 108.496C151.304 105.824 147.653 104.322 143.847 104.322H138.144C136.259 104.322 134.392 104.691 132.651 105.407C130.91 106.123 129.327 107.173 127.994 108.496C126.662 109.819 125.604 111.39 124.883 113.119C124.162 114.848 123.79 116.701 123.79 118.573V189.73H55.1399C53.7276 189.73 52.3393 189.368 51.1097 188.678C49.88 187.988 48.8508 186.995 48.1218 185.794C47.3929 184.593 46.9889 183.225 46.9492 181.824C46.9094 180.422 47.2352 179.034 47.895 177.794L120.554 41.2589C121.46 39.5567 122.009 37.6898 122.168 35.7711C122.327 33.8523 122.093 31.9215 121.48 30.0951C120.866 28.2686 119.887 26.5845 118.6 25.1444C117.313 23.7042 115.746 22.5379 113.992 21.7158L109.703 19.7048C106.372 18.1434 102.565 17.9128 99.0677 19.0609C95.5707 20.2089 92.6521 22.6477 90.9157 25.8727L2.29851 190.461C0.789482 193.263 -2.97884e-07 196.392 0 199.57V199.57C0 202.108 0.50342 204.621 1.48152 206.965C2.45962 209.309 3.89324 211.44 5.70054 213.234C7.50783 215.028 9.6534 216.452 12.0147 217.423C14.3761 218.394 16.9069 218.894 19.4628 218.894H123.79V263.889C123.79 266.132 124.236 268.353 125.1 270.426C125.965 272.498 127.232 274.381 128.83 275.967C130.427 277.554 132.324 278.812 134.411 279.67C136.499 280.529 138.736 280.97 140.995 280.97H140.995C143.255 280.97 145.492 280.529 147.579 279.67C149.667 278.812 151.563 277.554 153.161 275.967C154.758 274.381 156.026 272.498 156.89 270.426C157.755 268.353 158.2 266.132 158.2 263.889V218.894H182.539C186.434 218.894 190.169 217.357 192.924 214.623C195.678 211.888 197.225 208.179 197.225 204.312V204.312C197.225 200.445 195.678 196.736 192.924 194.001C190.169 191.266 186.434 189.73 182.539 189.73V189.73Z" fill="#FF6348"/>
<defs>
<filter id="filter0_b" x="-648" y="-237" width="1990" height="1150" filterUnits="userSpaceOnUse" color-interpolation-filters="sRGB">
<feFlood flood-opacity="0" result="BackgroundImageFix"/>
<feGaussianBlur in="BackgroundImage" stdDeviation="17.5"/>
<feComposite in2="SourceAlpha" operator="in" result="effect1_backgroundBlur"/>
<feBlend mode="normal" in="SourceGraphic" in2="effect1_backgroundBlur" result="shape"/>
</filter>
<clipPath id="clip0">
<rect width="1022.7" height="785.81" fill="white" transform="translate(252 51)"/>
</clipPath>
</defs>
</svg>
