<svg width="644" height="585" viewBox="0 0 644 585" fill="none" xmlns="http://www.w3.org/2000/svg">
<path d="M530.823 231.661C525.762 175.94 499.173 126.287 453.043 97.7131C406.913 69.1395 350.614 67.45 298.471 87.7381C295.187 107.164 295.816 127.05 300.32 146.229C305.893 169.92 317.241 191.863 333.352 210.104C349.462 228.345 369.835 242.317 392.655 250.775C415.475 259.233 440.034 261.914 464.141 258.579C488.248 255.244 511.156 245.997 530.823 231.661V231.661Z" fill="#FF6348"/>
<path d="M265.851 93.7804C266.84 96.194 268.093 98.4906 269.588 100.628C264.041 158.618 288.47 220.761 338.896 255.939L208.508 466.438C170.491 439.626 151.193 400.155 143.841 352.671C140.472 352.987 137.794 353.504 135.308 354.004C131.808 354.726 128.599 356.465 126.083 359.004C123.567 361.542 121.857 364.767 121.166 368.273C120.182 373.082 117.937 377.542 114.66 381.197C111.384 384.852 107.194 387.569 102.522 389.07C97.8486 390.572 92.8604 390.803 88.0685 389.741C83.2765 388.679 78.8533 386.361 75.2525 383.026C71.6518 379.69 69.0031 375.457 67.5781 370.76C66.153 366.063 66.003 361.072 67.1433 356.298C68.2835 351.524 70.6731 347.139 74.0669 343.593C77.4607 340.048 81.7366 337.468 86.4561 336.12C87.8746 335.715 89.3247 335.431 90.791 335.269C91.6805 335.102 92.5864 335.039 93.4905 335.083C105.171 324.275 121.008 317.811 141.576 315.636C142.491 279.234 151.406 243.479 167.687 210.907C165.649 209.671 163.545 208.549 161.383 207.546C158.423 206.22 155.156 205.734 151.939 206.139C148.722 206.545 145.678 207.827 143.14 209.846C139.134 212.933 134.361 214.865 129.336 215.433C124.311 216.001 119.227 215.183 114.634 213.068C110.04 210.952 106.114 207.62 103.279 203.433C100.444 199.246 98.809 194.362 98.5511 189.312C98.2932 184.262 99.4222 179.237 101.816 174.783C104.209 170.329 107.776 166.614 112.13 164.042C116.484 161.47 121.459 160.138 126.515 160.191C131.572 160.244 136.517 161.68 140.816 164.343C141.759 164.95 142.669 165.605 143.545 166.305C148.633 165.953 153.744 166.425 158.681 167.703C168.335 170.182 177.583 174.032 186.143 179.137C200.516 157.798 218.029 138.752 238.09 122.643C234.661 116.355 231.844 109.752 229.677 102.925C227.665 96.1118 226.977 88.9761 227.648 81.9034C227.923 78.2888 227.16 74.6708 225.45 71.4749C224.161 68.9687 223.223 66.2977 222.66 63.5365C221.693 58.5927 222.093 53.4786 223.819 48.7457C225.544 44.0129 228.529 39.8409 232.451 36.6795C236.373 33.5181 241.083 31.4874 246.075 30.8064C251.066 30.1253 256.149 30.8197 260.774 32.8148C265.4 34.8098 269.393 38.0297 272.323 42.1273C275.254 46.2248 277.01 51.0446 277.402 56.0668C277.795 61.089 276.809 66.1231 274.551 70.6262C272.293 75.1293 268.848 78.9305 264.589 81.62C264.082 85.7168 264.513 89.8752 265.851 93.7804Z" fill="#FF6348"/>
<path d="M536.674 259.985C534.096 260.192 531.507 260.11 528.955 259.743C479.77 290.778 413.842 297.01 360.592 267.975L230.043 478.734C270.449 500.495 313.969 499.901 359.421 485.071C360.606 488.211 361.311 490.826 361.948 493.263C362.829 496.703 362.679 500.341 361.515 503.722C360.351 507.103 358.227 510.077 355.407 512.27C351.557 515.309 348.565 519.315 346.739 523.875C344.914 528.435 344.319 533.386 345.017 538.22C345.715 543.053 347.68 547.596 350.711 551.382C353.742 555.168 357.73 558.06 362.265 559.763C366.8 561.466 371.72 561.917 376.519 561.071C381.319 560.225 385.825 558.112 389.577 554.949C393.329 551.786 396.19 547.686 397.868 543.07C399.546 538.455 399.98 533.489 399.125 528.683C398.868 527.238 398.49 525.82 397.995 524.443C397.757 523.576 397.419 522.742 396.986 521.957C401.518 506.699 400.378 489.698 393.36 470.418C425.352 453.219 453.287 429.195 475.182 400.048C477.169 401.305 479.084 402.673 480.917 404.145C483.385 406.182 485.24 408.869 486.279 411.915C487.319 414.96 487.503 418.246 486.811 421.413C485.808 426.366 486.166 431.483 487.848 436.21C489.53 440.936 492.471 445.092 496.352 448.227C500.234 451.362 504.908 453.357 509.868 453.994C514.827 454.632 519.884 453.889 524.49 451.846C529.096 449.802 533.076 446.536 535.997 442.401C538.919 438.267 540.672 433.421 541.065 428.39C541.459 423.358 540.478 418.332 538.23 413.857C535.982 409.381 532.552 405.627 528.311 403C527.361 402.435 526.382 401.919 525.378 401.456C523.476 396.77 520.832 392.434 517.546 388.616C511.138 381.142 503.687 374.646 495.419 369.327C508.15 346.933 517.474 322.778 523.076 297.677C530.163 297.899 537.265 297.434 544.282 296.289C551.221 295.012 557.87 292.414 563.871 288.633C566.967 286.761 570.519 285.812 574.107 285.895C576.898 285.914 579.683 285.547 582.385 284.805C587.205 283.44 591.581 280.782 595.041 277.117C598.502 273.451 600.915 268.918 602.021 264.005C603.127 259.092 602.883 253.987 601.317 249.239C599.75 244.491 596.92 240.281 593.131 237.063C589.343 233.845 584.74 231.741 579.818 230.978C574.897 230.215 569.844 230.822 565.204 232.733C560.564 234.644 556.514 237.787 553.49 241.823C550.466 245.859 548.583 250.635 548.044 255.635C544.62 257.93 540.731 259.418 536.674 259.985Z" fill="#FF6348"/>
</svg>
