<svg width="958" height="909" viewBox="0 0 958 909" fill="none" xmlns="http://www.w3.org/2000/svg">
<path d="M465.597 125.651L104.445 529.105C93.5703 541.472 74.9793 542.334 62.6121 531.46C50.2449 520.585 49.3827 501.994 60.2573 489.627L421.409 86.1726C432.284 73.8055 450.875 72.9433 463.242 83.8179C475.609 94.6925 476.968 113.453 465.597 125.651Z" stroke="#0897E9" stroke-width="2.62362" stroke-miterlimit="10"/>
<path d="M471.998 274.21L110.846 677.664C99.9712 690.031 81.3802 690.893 69.013 680.019C56.6458 669.144 55.7836 650.553 66.6582 638.186L427.81 234.732C438.685 222.364 457.276 221.502 469.643 232.377C482.01 243.251 482.703 262.339 471.998 274.21Z" stroke="#0897E9" stroke-width="2.62362" stroke-miterlimit="10"/>
<path d="M677.642 198.027L316.49 601.482C305.615 613.849 287.024 614.711 274.657 603.836C262.29 592.962 261.428 574.371 272.302 562.004L633.454 158.549C644.329 146.182 662.92 145.32 675.287 156.194C687.654 167.069 688.517 185.66 677.642 198.027Z" stroke="#0897E9" stroke-width="2.62362" stroke-miterlimit="10"/>
<path d="M889.19 270.234L528.038 673.689C517.164 686.056 498.573 686.918 486.205 676.043C473.838 665.169 472.976 646.578 483.851 634.211L845.003 230.756C855.877 218.389 874.468 217.527 886.836 228.401C899.203 239.276 900.562 258.037 889.19 270.234Z" stroke="#0897E9" stroke-width="2.62362" stroke-miterlimit="10"/>
<path d="M897.081 419.302L535.929 822.756C525.055 835.123 506.464 835.986 494.096 825.111C481.729 814.236 480.867 795.645 491.742 783.278L852.894 379.824C863.768 367.457 882.359 366.594 894.726 377.469C906.597 388.174 907.786 407.431 897.081 419.302Z" stroke="#0897E9" stroke-width="2.62362" stroke-miterlimit="10"/>
<path d="M684.043 346.586L322.891 750.041C312.016 762.408 293.425 763.27 281.058 752.395C268.691 741.521 267.829 722.93 278.703 710.563L639.855 307.108C650.73 294.741 669.321 293.879 681.688 304.753C694.055 315.628 694.748 334.716 684.043 346.586Z" stroke="#0897E9" stroke-width="2.62362" stroke-miterlimit="10"/>
</svg>
