<?xml version="1.0" encoding="utf-8"?>
<!-- Generator: Adobe Illustrator 25.2.1, SVG Export Plug-In . SVG Version: 6.00 Build 0)  -->
<svg version="1.1" id="Layer_1" xmlns="http://www.w3.org/2000/svg" xmlns:xlink="http://www.w3.org/1999/xlink" x="0px" y="0px"
	 viewBox="0 0 171.8 135.5" style="enable-background:new 0 0 171.8 135.5;" xml:space="preserve">
<style type="text/css">
	.st0{fill:none;stroke:#0897E9;stroke-width:0.5;stroke-miterlimit:10;}
</style>
<g>
	<path class="st0" d="M60.5,108.4c-0.7,0-1.5-0.1-2.2-0.4c-2.9-1.2-4.3-4.5-3.1-7.4L94.4,5.1c1.2-2.9,4.5-4.3,7.4-3.1
		c2.9,1.2,4.3,4.5,3.1,7.4l-39.2,95.4C64.8,107,62.7,108.3,60.5,108.4"/>
	<path class="st0" d="M28.8,134.3c-0.7,0-1.5-0.1-2.2-0.4c-2.9-1.2-4.3-4.5-3.1-7.4l39.2-95.4c1.2-2.9,4.5-4.3,7.4-3.1
		c2.9,1.2,4.3,4.5,3.1,7.4L34,130.8C33.1,132.9,31,134.3,28.8,134.3"/>
	<path class="st0" d="M18.4,108.8c-0.7,0-1.5-0.1-2.2-0.4c-2.9-1.2-4.3-4.5-3.1-7.4L52.4,5.6c1.2-2.9,4.5-4.3,7.4-3.1
		C62.6,3.7,64,7,62.8,9.9l-39.2,95.4C22.7,107.4,20.6,108.8,18.4,108.8"/>
	<path class="st0" d="M71.2,133.9c-0.7,0-1.5-0.1-2.2-0.4c-2.9-1.2-4.3-4.5-3.1-7.4l39.2-95.4c1.2-2.9,4.5-4.3,7.4-3.1
		c2.9,1.2,4.3,4.5,3.1,7.4l-39.2,95.4C75.5,132.5,73.4,133.8,71.2,133.9"/>
	<path class="st0" d="M102.1,107.9c-0.7,0-1.5-0.1-2.2-0.4c-2.9-1.2-4.3-4.5-3.1-7.4L136,4.7c1.2-2.9,4.5-4.3,7.4-3.1
		c2.9,1.2,4.3,4.5,3.1,7.4l-39.2,95.4C106.4,106.6,104.3,107.9,102.1,107.9"/>
	<path class="st0" d="M114.2,133.4c-0.7,0-1.5-0.1-2.2-0.4c-2.9-1.2-4.3-4.5-3.1-7.4l39.2-95.4c1.2-2.9,4.5-4.3,7.4-3.1
		c2.9,1.2,4.3,4.5,3.1,7.4l-39.2,95.4C118.5,132.1,116.5,133.4,114.2,133.4"/>
</g>
</svg>
