<svg width="147" height="147" viewBox="0 0 147 147" fill="none" xmlns="http://www.w3.org/2000/svg">
<path d="M73.4314 146.885C113.986 146.885 146.863 144.97 146.863 142.607C146.863 140.244 113.986 138.329 73.4314 138.329C32.8764 138.329 0 140.244 0 142.607C0 144.97 32.8764 146.885 73.4314 146.885Z" fill="#E6E6E6"/>
<path d="M134.126 33.889H133.336V12.4235C133.336 9.12862 132.017 5.96864 129.668 3.63877C127.319 1.30891 124.133 0 120.811 0H74.9609C71.639 0 68.4531 1.30891 66.1041 3.63877C63.7552 5.96864 62.4355 9.12862 62.4355 12.4235V130.184C62.4355 133.479 63.7552 136.639 66.1041 138.969C68.4531 141.299 71.639 142.608 74.9609 142.608H120.811C124.133 142.608 127.319 141.299 129.668 138.969C132.017 136.639 133.336 133.479 133.336 130.184V49.1684H134.126V33.889Z" fill="#3F3D56"/>
<path d="M130.969 12.5105V130.098C130.969 132.558 129.979 134.918 128.217 136.658C126.454 138.398 124.064 139.376 121.572 139.376H75.2888C72.7965 139.376 70.4064 138.398 68.6441 136.658C66.8818 134.918 65.8917 132.559 65.8916 130.098V12.5105C65.8917 10.0498 66.8818 7.68994 68.6441 5.94998C70.4064 4.21001 72.7966 3.23248 75.289 3.23242H80.9038C80.6278 3.90177 80.5228 4.62781 80.5977 5.34667C80.6727 6.06553 80.9255 6.75519 81.3338 7.35497C81.7421 7.95475 82.2934 8.44626 82.9393 8.78629C83.5852 9.12631 84.3058 9.30442 85.0377 9.30495H111.426C112.158 9.30446 112.879 9.12637 113.525 8.78636C114.171 8.44635 114.722 7.95484 115.13 7.35506C115.539 6.75527 115.791 6.06561 115.866 5.34673C115.941 4.62785 115.836 3.90179 115.56 3.23242H121.572C124.064 3.23248 126.454 4.21001 128.217 5.94998C129.979 7.68994 130.969 10.0498 130.969 12.5105Z" fill="white"/>
<path d="M130.796 122.285V135.515C130.796 138.199 126.597 140.374 121.418 140.374H75.2262C70.0465 140.374 65.8474 138.199 65.8472 135.515V123.575C73.8557 118.704 85.4348 115.794 97.7754 115.549C110.116 115.303 122.091 117.746 130.796 122.285Z" fill="#E6E6E6"/>
<path opacity="0.2" d="M98.1054 62.3025C112.284 62.3025 123.779 50.9017 123.779 36.838C123.779 22.7744 112.284 11.3735 98.1054 11.3735C83.9264 11.3735 72.4321 22.7744 72.4321 36.838C72.4321 50.9017 83.9264 62.3025 98.1054 62.3025Z" fill="#25B660"/>
<path d="M98.1057 57.3423C109.523 57.3423 118.778 48.1624 118.778 36.8383C118.778 25.5143 109.523 16.3344 98.1057 16.3344C86.6888 16.3344 77.4336 25.5143 77.4336 36.8383C77.4336 48.1624 86.6888 57.3423 98.1057 57.3423Z" fill="#25B660"/>
<path d="M95.6956 45.6048L88.4102 36.3143L92.6469 33.0458L96.0961 37.4447L107.749 25.2443L111.646 28.9055L95.6956 45.6048Z" fill="white"/>
<path d="M9.37748 131.287C10.3498 131.628 11.3937 131.714 12.4087 131.535C13.4237 131.356 14.3755 130.919 15.1725 130.266C17.2022 128.562 17.8387 125.756 18.3563 123.157L19.8879 115.47L16.6815 117.678C14.3755 119.266 12.0177 120.905 10.4212 123.204C8.82468 125.504 8.12817 128.644 9.41054 131.132" fill="#E6E6E6"/>
<path d="M9.87318 141.128C9.46961 138.188 9.05438 135.21 9.33814 132.238C9.58961 129.599 10.3948 127.021 12.0342 124.907C12.9043 123.787 13.9631 122.828 15.163 122.072C15.4758 121.874 15.7637 122.37 15.4523 122.567C13.3761 123.879 11.7703 125.816 10.8662 128.1C9.86783 130.639 9.70751 133.407 9.87948 136.105C9.98343 137.736 10.2043 139.357 10.4262 140.975C10.4437 141.048 10.4328 141.126 10.3956 141.191C10.3584 141.256 10.2978 141.305 10.2259 141.328C10.1526 141.348 10.0745 141.338 10.0085 141.3C9.94251 141.263 9.89396 141.201 9.87338 141.128L9.87318 141.128Z" fill="#F2F2F2"/>
<path d="M12.7783 136.41C13.1953 137.044 13.7684 137.56 14.4426 137.908C15.1168 138.256 15.8693 138.425 16.6275 138.398C18.5766 138.305 20.2008 136.945 21.6628 135.654L25.988 131.835L23.1255 131.698C21.067 131.6 18.9553 131.507 16.9946 132.143C15.0339 132.778 13.2256 134.305 12.8672 136.335" fill="#E6E6E6"/>
<path d="M8.73253 142.818C10.6755 139.38 12.9289 135.559 16.9558 134.338C18.0754 134 19.2493 133.879 20.4144 133.981C20.7817 134.013 20.69 134.579 20.3235 134.547C18.3705 134.385 16.4212 134.901 14.8038 136.008C13.2475 137.067 12.0356 138.54 11.0101 140.102C10.3818 141.058 9.81904 142.056 9.25629 143.051C9.07647 143.37 8.55062 143.14 8.73253 142.818Z" fill="#F2F2F2"/>
<path d="M44.0679 85.703C44.0469 85.2598 43.9289 84.8265 43.7224 84.4338C43.5158 84.041 43.2257 83.6983 42.8724 83.4299C42.519 83.1614 42.1112 82.9736 41.6774 82.8799C41.2437 82.7861 40.7947 82.7885 40.362 82.8871L36.348 77.2302L32.3154 78.8311L38.0962 86.74C38.3099 87.4559 38.7787 88.0685 39.4139 88.4618C40.0491 88.8551 40.8065 89.0018 41.5426 88.8739C42.2787 88.7461 42.9423 88.3527 43.4078 87.7683C43.8732 87.1839 44.1081 86.449 44.0679 85.703H44.0679Z" fill="#A0616A"/>
<path d="M36.2449 85.2841L24.0991 69.5274L28.65 55.2247C28.9835 51.6288 31.2337 50.6247 31.3294 50.5837L31.4755 50.521L35.4356 61.0816L32.5279 68.8354L39.6647 80.8384L36.2449 85.2841Z" fill="#3F3D56"/>
<path d="M78.4248 36.7113C77.9845 36.7665 77.5617 36.9176 77.1861 37.1539C76.8105 37.3902 76.4913 37.706 76.2509 38.079C76.0105 38.452 75.8549 38.8732 75.7949 39.3129C75.735 39.7525 75.7721 40.2 75.9038 40.6238L70.5742 45.0631L72.4821 48.9599L79.9204 42.5849C80.6176 42.3165 81.1922 41.8017 81.5352 41.138C81.8782 40.4743 81.9659 39.7078 81.7815 38.9838C81.5971 38.2598 81.1536 37.6286 80.5349 37.2097C79.9163 36.7909 79.1655 36.6136 78.4248 36.7113Z" fill="#A0616A"/>
<path d="M78.6121 44.5434L63.8416 57.8711L49.2298 54.4396C45.6189 54.3852 44.4438 52.2194 44.3955 52.1271L44.3218 51.9863L54.5446 47.2215L62.5 49.521L73.9153 41.4775L78.6121 44.5434Z" fill="#3F3D56"/>
<path d="M53.0271 139.29L56.9957 139.29L58.8834 123.982L53.0264 123.983L53.0271 139.29Z" fill="#A0616A"/>
<path d="M64.6494 142.974L52.1769 142.975L52.1767 138.156L61.15 138.155C62.078 138.155 62.9681 138.524 63.6244 139.18C64.2806 139.836 64.6493 140.726 64.6494 141.654L64.6494 142.974L64.6494 142.974Z" fill="#2F2E41"/>
<path d="M37.1655 139.29L41.1341 139.29L43.0221 123.982L37.165 123.983L37.1655 139.29Z" fill="#A0616A"/>
<path d="M48.7881 142.974L36.3156 142.975L36.3154 138.156L45.2887 138.155C45.7482 138.155 46.2032 138.246 46.6278 138.422C47.0523 138.597 47.4381 138.855 47.763 139.18C48.088 139.505 48.3457 139.891 48.5216 140.315C48.6975 140.74 48.788 141.195 48.788 141.654L48.7881 142.974Z" fill="#2F2E41"/>
<path d="M35.7544 83.4167L36.0781 106.076L36.402 135.857L43.5232 135.209L47.0841 94.0991L51.616 135.209H58.9679L59.7085 93.7754L57.1188 84.7117L35.7544 83.4167Z" fill="#2F2E41"/>
<path d="M49.6928 86.4597C41.9442 86.4603 34.8117 82.9532 34.7154 82.9051L34.6355 82.8651L33.9852 67.26C33.7967 66.7085 30.0837 55.8272 29.4548 52.3686C28.8177 48.8645 38.0518 45.7893 39.1731 45.4296L39.4276 42.6108L49.7755 41.4957L51.0871 45.1026L54.7994 46.4946C55.2203 46.6526 55.5686 46.9594 55.7784 47.357C55.9881 47.7546 56.0448 48.2153 55.9375 48.6518L53.8742 57.0425L58.9135 84.803L57.8286 84.8499C55.2281 86.0244 52.4215 86.4595 49.6928 86.4597Z" fill="#3F3D56"/>
<path d="M48.58 38.7974C52.1906 36.8237 53.5175 32.2967 51.5438 28.6862C49.57 25.0756 45.0431 23.7487 41.4325 25.7224C37.822 27.6961 36.495 32.2231 38.4688 35.8336C40.4425 39.4442 44.9694 40.7711 48.58 38.7974Z" fill="#A0616A"/>
<path d="M38.9718 39.4725C40.3917 40.985 43.0286 40.173 43.2137 38.1067C43.2282 37.9463 43.2271 37.7849 43.2105 37.6247C43.115 36.7094 42.5862 35.8784 42.7129 34.912C42.7415 34.6715 42.8311 34.4423 42.9732 34.2461C44.1047 32.7309 46.7607 34.9238 47.8286 33.5522C48.4834 32.7111 47.7137 31.3869 48.2162 30.4469C48.8793 29.2063 50.8436 29.8183 52.0755 29.1388C53.446 28.3829 53.3641 26.28 52.4619 25.001C51.3616 23.4411 49.4325 22.6088 47.5274 22.4888C45.6223 22.3689 43.7304 22.8839 41.9518 23.577C39.931 24.3645 37.9271 25.4529 36.6835 27.2298C35.1712 29.3907 35.0256 32.2958 35.782 34.8226C36.2421 36.3597 37.8123 38.2374 38.9718 39.4725Z" fill="#2F2E41"/>
<path d="M108.349 67.9421H87.9961V73.6289H108.349V67.9421Z" fill="#E5E5E5"/>
<path d="M120.919 92.4851H75.7236V98.4712H120.919V92.4851Z" fill="#E5E5E5"/>
<path d="M120.919 80.2136H75.7236V85.9004H120.919V80.2136Z" fill="#E5E5E5"/>
<path d="M120.919 105.056H75.7236V110.743H120.919V105.056Z" fill="#E5E5E5"/>
</svg>
