<svg width="208" height="116" viewBox="0 0 208 116" fill="none" xmlns="http://www.w3.org/2000/svg">
<g clip-path="url(#clip0)">
<path d="M43.6179 115.558H11.9541C11.9541 115.558 11.3122 106.145 15.1096 106.038C18.907 105.931 18.4791 110.21 23.2395 104.326C27.9999 98.4427 33.7762 98.7637 34.525 102.24C35.2738 105.717 33.081 108.498 37.0923 107.642C41.1037 106.787 46.8804 109.033 43.6179 115.558Z" fill="#E6E6E6"/>
<path d="M27.2515 115.561L27.1445 115.556C27.3938 109.359 28.6917 105.377 29.7369 103.127C30.8715 100.685 31.9648 99.6965 31.9759 99.6868L32.047 99.7667C32.0362 99.7764 30.9557 100.755 29.8301 103.181C28.7908 105.42 27.4999 109.386 27.2515 115.561Z" fill="white"/>
<path d="M38.7111 115.573L38.6084 115.543C39.4047 112.917 40.8402 110.528 42.7862 108.593L42.858 108.672C40.9264 110.594 39.5016 112.965 38.7111 115.573Z" fill="white"/>
<path d="M16.9407 115.566L16.8347 115.551C17.1799 113.227 16.8147 110.854 15.7868 108.741C15.3654 107.855 14.8077 107.041 14.1338 106.328L14.2079 106.251C14.8909 106.972 15.4563 107.797 15.8836 108.694C16.9207 110.825 17.2892 113.221 16.9407 115.566Z" fill="white"/>
<path d="M47.9145 115.701H8.53852L8.52951 115.568C8.50699 115.236 8.00456 107.409 10.5406 104.617C10.7922 104.322 11.1028 104.083 11.4524 103.915C11.802 103.747 12.1828 103.654 12.5704 103.643C14.2234 103.596 15.2622 104.215 16.1002 104.712C17.6796 105.649 18.7227 106.268 22.5163 101.579C26.6256 96.5 31.0597 95.4071 33.6085 96.0147C35.2555 96.4075 36.3905 97.5171 36.7227 99.0595C37.038 100.52 36.9371 101.892 36.8565 102.995C36.7702 104.175 36.7022 105.106 37.1868 105.529C37.5922 105.881 38.3987 105.913 39.7274 105.63C42.4298 105.053 46.2016 105.547 48.0944 107.992C49.1128 109.308 49.9152 111.7 47.9541 115.622L47.9145 115.701ZM8.80719 115.415H47.7372C49.1986 112.45 49.2443 109.946 47.8681 108.168C46.1315 105.924 42.4884 105.333 39.787 105.91C38.3433 106.218 37.4832 106.167 36.9988 105.745C36.4063 105.229 36.479 104.234 36.5709 102.975C36.6502 101.891 36.7486 100.541 36.4428 99.1205C36.1347 97.6902 35.0773 96.6599 33.5419 96.294C31.0743 95.7053 26.7632 96.7842 22.7386 101.76C18.7898 106.64 17.6001 105.935 15.9541 104.958C15.1057 104.455 14.1427 103.884 12.5782 103.928C12.2293 103.94 11.8866 104.024 11.5721 104.175C11.2576 104.327 10.9784 104.543 10.7523 104.809C8.47366 107.319 8.75156 114.357 8.80741 115.415H8.80719Z" fill="#2F2E41"/>
<path d="M176.574 115.86H137.79L137.783 115.643L135.931 62.6793H178.433L176.574 115.86ZM138.225 115.41H176.139L177.967 63.1297H136.397L138.225 115.41Z" fill="#3F3D56"/>
<path d="M147.042 72.4929H144.092V108.998H147.042V72.4929Z" fill="#3F3D56"/>
<path d="M158.657 72.4927H155.707V108.998H158.657V72.4927Z" fill="#3F3D56"/>
<path d="M170.272 72.4927H167.322V108.998H170.272V72.4927Z" fill="#3F3D56"/>
<path d="M203.079 78.2322L202.888 78.1119L154.714 47.668L158.893 41.0555L159.083 41.1758L207.257 71.6196L203.079 78.2322ZM155.335 47.5279L202.938 77.6107L206.636 71.7599L159.033 41.6768L155.335 47.5279Z" fill="#3F3D56"/>
<path d="M191.447 45.2143C190.047 44.3281 188.422 43.8622 186.765 43.872C185.107 43.8817 183.488 44.3666 182.098 45.2692C180.708 46.1718 179.607 47.4542 178.924 48.9641C178.241 50.4741 178.006 52.1482 178.246 53.7879L180.543 55.2396C179.966 53.8991 179.833 52.4091 180.163 50.9877C180.494 49.5662 181.271 48.288 182.381 47.3402C183.491 46.3923 184.875 45.8247 186.331 45.7204C187.786 45.616 189.237 45.9805 190.471 46.7604C191.704 47.5402 192.656 48.6946 193.186 50.0543C193.716 51.4141 193.797 52.9078 193.417 54.3169C193.036 55.7259 192.215 56.9762 191.073 57.8847C189.931 58.7932 188.528 59.3121 187.069 59.3655L189.366 60.8172C190.951 60.3309 192.362 59.4003 193.433 58.1358C194.504 56.8713 195.19 55.3261 195.41 53.6835C195.629 52.0409 195.372 50.3698 194.67 48.8687C193.968 47.3675 192.85 46.0992 191.449 45.2143H191.447Z" fill="#3F3D56"/>
<path d="M204.711 115.55H0V116H204.711V115.55Z" fill="#3F3D56"/>
<path d="M89.4142 112.476H86.1344L84.5732 99.8257H89.4151L89.4142 112.476Z" fill="#FEB8B8"/>
<path d="M79.8096 115.521H90.1174V111.539H83.7369C82.6953 111.539 81.6964 111.953 80.9599 112.689C80.2233 113.426 79.8096 114.425 79.8096 115.466V115.521Z" fill="#2F2E41"/>
<path d="M88.2617 92.8733L90.5241 95.2481L100.76 87.6526L97.4213 84.1477L88.2617 92.8733Z" fill="#FEB8B8"/>
<path d="M92.8552 96.336L88.4527 91.7166L85.5693 94.4645L92.6817 101.927L92.7217 101.889C93.0951 101.533 93.3948 101.108 93.6035 100.636C93.8123 100.164 93.9262 99.656 93.9386 99.1403C93.951 98.6247 93.8617 98.1116 93.6758 97.6304C93.4899 97.1493 93.2111 96.7095 92.8552 96.3361V96.336Z" fill="#2F2E41"/>
<path d="M65.4327 58.2147C65.2252 57.8807 65.0933 57.5053 65.0465 57.1149C64.9997 56.7245 65.039 56.3286 65.1617 55.955C65.2844 55.5814 65.4875 55.2393 65.7567 54.9527C66.0259 54.666 66.3546 54.4419 66.7198 54.2961L79.5968 21.4777L84.6161 24.483L70.3116 55.9667C70.516 56.5965 70.4822 57.2795 70.2167 57.8862C69.9511 58.4928 69.4723 58.9809 68.8708 59.258C68.2694 59.5352 67.5872 59.582 66.9535 59.3897C66.3198 59.1974 65.7787 58.7793 65.4327 58.2147Z" fill="#FEB8B8"/>
<path d="M114.309 60.5669C113.917 60.5389 113.535 60.4251 113.192 60.2337C112.848 60.0423 112.551 59.7778 112.32 59.4589C112.09 59.1401 111.932 58.7746 111.859 58.3882C111.785 58.0018 111.797 57.604 111.893 57.2227L92.8965 27.5251L98.2769 25.228L115.355 55.2981C115.986 55.5019 116.52 55.9303 116.856 56.5018C117.191 57.0733 117.306 57.7482 117.177 58.3984C117.047 59.0485 116.684 59.6286 116.156 60.0285C115.627 60.4285 114.97 60.6204 114.309 60.5679V60.5669Z" fill="#FEB8B8"/>
<path d="M79.7236 54.9285L83.0862 104.904L91.1219 104.195L92.7763 67.3244L97.2668 83.1595L106.957 83.8684L103.122 52.5649L79.7236 54.9285Z" fill="#2F2E41"/>
<path d="M98.6851 80.7961L97.2663 83.1597L87.3408 90.0136L94.4312 93.7952C94.4312 93.7952 108.139 86.2321 106.958 83.8686L98.6851 80.7961Z" fill="#2F2E41"/>
<path d="M72.6865 34.7087L75.4838 26.8265C76.1061 25.0727 77.0701 23.4597 78.32 22.0809C79.5698 20.7021 81.0806 19.5849 82.7651 18.7939C86.5512 17.3991 90.669 17.1736 94.5848 18.1469L95.6027 18.3995C98.3171 19.0575 100.86 20.2858 103.063 22.0028C104.787 23.3617 106.338 25.0823 106.476 26.933C106.477 26.9369 106.478 26.9408 106.479 26.9445C106.957 29.0371 107.193 39.9089 107.193 39.9089H102.982L103.648 54.5623L103.594 54.4562C103.594 54.4562 79.3042 59.0528 79.3042 56.6893V41.5628L78.8062 36.0858L72.6865 34.7087Z" fill="#CCCCCC"/>
<path d="M95.3591 16.098C99.0766 16.098 102.09 13.0844 102.09 9.36689C102.09 5.64938 99.0766 2.63574 95.3591 2.63574C91.6416 2.63574 88.6279 5.64938 88.6279 9.36689C88.6279 13.0844 91.6416 16.098 95.3591 16.098Z" fill="#FEB8B8"/>
<path d="M96.3673 6.3482L101.594 6.55764C102.251 6.55562 102.969 6.53242 103.47 6.10723C104.225 5.46562 104.098 4.25492 103.694 3.3505C102.568 0.83226 100.057 -0.0699093 97.2985 0.00418305C94.5404 0.0782755 91.6504 1.0131 90.1652 3.33721C88.6799 5.66133 88.2786 8.5962 88.838 11.2969C89.4847 9.92361 90.4804 8.74401 91.7255 7.87582C92.9706 7.00762 94.4216 6.4812 95.9338 6.3491L96.3673 6.3482Z" fill="#2F2E41"/>
<path d="M127.404 72.1882L108.486 58.9298C108.311 58.8061 108.191 58.6178 108.154 58.4061C108.117 58.1944 108.165 57.9766 108.288 57.8004L123.136 36.6148C123.26 36.439 123.448 36.3194 123.66 36.2822C123.871 36.245 124.089 36.2931 124.265 36.4161L143.183 49.6746C143.359 49.7983 143.478 49.9866 143.515 50.1982C143.553 50.4099 143.504 50.6277 143.381 50.8039L128.534 71.989C128.41 72.165 128.222 72.2848 128.01 72.3221C127.798 72.3594 127.58 72.3113 127.404 72.1882Z" fill="#FF6348"/>
<path d="M131.658 57.8019L120.557 50.0221C120.429 49.9321 120.32 49.8178 120.235 49.6855C120.151 49.5533 120.094 49.4057 120.067 49.2513C120.04 49.0969 120.043 48.9387 120.077 48.7857C120.111 48.6326 120.175 48.4878 120.265 48.3594C120.355 48.2311 120.469 48.1217 120.602 48.0375C120.734 47.9533 120.881 47.896 121.036 47.8689C121.19 47.8417 121.348 47.8452 121.501 47.8792C121.654 47.9132 121.799 47.977 121.928 48.067L133.028 55.8469C133.287 56.0286 133.464 56.3058 133.519 56.6176C133.574 56.9294 133.502 57.2503 133.321 57.5095C133.139 57.7688 132.862 57.9452 132.55 58.0001C132.238 58.0549 131.917 57.9836 131.658 57.8019Z" fill="white"/>
<path d="M129.111 61.4369L118.01 53.6571C117.882 53.5672 117.772 53.4528 117.688 53.3206C117.604 53.1883 117.546 53.0407 117.519 52.8862C117.492 52.7318 117.495 52.5735 117.529 52.4203C117.563 52.2672 117.627 52.1223 117.717 51.9938C117.807 51.8654 117.922 51.7559 118.054 51.6718C118.186 51.5876 118.334 51.5303 118.488 51.5032C118.643 51.4761 118.801 51.4797 118.954 51.5138C119.107 51.5479 119.252 51.6119 119.381 51.702L130.481 59.4818C130.74 59.6637 130.916 59.9409 130.971 60.2525C131.026 60.5642 130.954 60.8848 130.773 61.1439C130.591 61.403 130.314 61.5794 130.002 61.6344C129.691 61.6893 129.37 61.6183 129.111 61.4369Z" fill="white"/>
<path d="M126.536 65.111L115.435 57.3312C115.307 57.2412 115.198 57.1268 115.113 56.9946C115.029 56.8623 114.972 56.7148 114.945 56.5604C114.918 56.406 114.921 56.2478 114.955 56.0948C114.989 55.9417 115.053 55.7969 115.143 55.6685C115.233 55.5402 115.347 55.4308 115.48 55.3466C115.612 55.2624 115.759 55.2051 115.914 55.178C116.068 55.1508 116.226 55.1543 116.379 55.1883C116.532 55.2223 116.677 55.2861 116.806 55.3761L127.906 63.1559C128.165 63.3376 128.342 63.6149 128.397 63.9267C128.452 64.2385 128.38 64.5593 128.199 64.8186C128.017 65.0779 127.74 65.2543 127.428 65.3092C127.116 65.364 126.795 65.2927 126.536 65.111V65.111Z" fill="white"/>
<path d="M131.627 50.6111L127.328 47.5978C127.199 47.5079 127.09 47.3935 127.005 47.2612C126.921 47.129 126.864 46.9814 126.836 46.8269C126.809 46.6725 126.813 46.5141 126.847 46.361C126.881 46.2079 126.945 46.063 127.035 45.9345C127.125 45.8061 127.239 45.6966 127.371 45.6124C127.504 45.5282 127.651 45.471 127.806 45.4439C127.96 45.4168 128.119 45.4204 128.272 45.4545C128.425 45.4886 128.57 45.5525 128.698 45.6427L132.998 48.656C133.257 48.8377 133.433 49.115 133.488 49.4268C133.543 49.7386 133.472 50.0594 133.29 50.3187C133.108 50.578 132.831 50.7544 132.519 50.8093C132.207 50.8641 131.887 50.7928 131.627 50.6111Z" fill="white"/>
</g>
<defs>
<clipPath id="clip0">
<rect width="207.257" height="116" fill="white"/>
</clipPath>
</defs>
</svg>
