<svg width="196" height="263" viewBox="0 0 196 263" fill="none" xmlns="http://www.w3.org/2000/svg">
<path d="M181.231 171.73H157.067V100.573C157.067 96.7934 155.565 93.1687 152.893 90.4962C150.221 87.8237 146.596 86.3224 142.816 86.3224H137.154C135.283 86.3224 133.43 86.6909 131.701 87.4071C129.972 88.1233 128.401 89.1729 127.078 90.4962C125.754 91.8195 124.705 93.3905 123.989 95.1194C123.272 96.8484 122.904 98.7014 122.904 100.573V171.73H54.745C53.3428 171.73 51.9644 171.368 50.7436 170.678C49.5227 169.988 48.5009 168.995 47.7771 167.794C47.0534 166.593 46.6523 165.225 46.6129 163.824C46.5734 162.422 46.8969 161.034 47.5519 159.794L119.69 23.2589C120.59 21.5567 121.135 19.6898 121.293 17.7711C121.451 15.8523 121.218 13.9215 120.61 12.0951C120.001 10.2686 119.028 8.58452 117.75 7.14437C116.473 5.70422 114.916 4.53789 113.176 3.7158L108.917 1.70485C105.61 0.143366 101.83 -0.087209 98.3581 1.06085C94.8861 2.20891 91.9884 4.64773 90.2645 7.87269L2.28205 172.461C0.783827 175.263 -2.9575e-07 178.392 0 181.57C0 184.108 0.499814 186.621 1.47091 188.965C2.442 191.309 3.86536 193.44 5.6597 195.234C7.45405 197.028 9.58425 198.452 11.9287 199.423C14.2731 200.394 16.7858 200.894 19.3234 200.894H122.904V245.889C122.904 248.132 123.346 250.353 124.204 252.426C125.062 254.498 126.321 256.381 127.907 257.967C129.493 259.554 131.376 260.812 133.448 261.67C135.521 262.529 137.742 262.97 139.985 262.97H139.985C142.229 262.97 144.45 262.529 146.522 261.67C148.595 260.812 150.478 259.554 152.064 257.967C153.65 256.381 154.908 254.498 155.767 252.426C156.625 250.353 157.067 248.132 157.067 245.889V200.894H181.231C185.098 200.894 188.807 199.357 191.542 196.623C194.276 193.888 195.813 190.179 195.813 186.312C195.813 182.445 194.277 178.736 191.542 176.001C188.807 173.266 185.098 171.73 181.231 171.73Z" fill="#FF6348"/>
</svg>
